<svg width="142" height="22" viewBox="0 0 142 22" fill="none" xmlns="http://www.w3.org/2000/svg">
<path d="M13.6323 10.4672V5.65226C13.6323 5.51295 13.7452 5.40001 13.8846 5.40001H16.7477C16.8871 5.40001 17 5.51295 17 5.65226V16.0215C17 16.1609 16.8871 16.2738 16.7477 16.2738H14.1814C14.0587 16.2738 13.9538 16.1855 13.9328 16.0646L13.7521 15.0216C13.715 14.8073 13.4373 14.7337 13.2857 14.8898C12.2429 15.9637 10.8026 16.6 9.13402 16.6C5.52577 16.6 3 14.0773 3 10.4672V5.65226C3 5.51295 3.11294 5.40001 3.25225 5.40001H6.11545C6.25476 5.40001 6.3677 5.51295 6.3677 5.65226V10.4672C6.3677 12.4245 7.88316 13.7728 10.0241 13.7728C12.1409 13.7728 13.6323 12.4027 13.6323 10.4672Z" fill="#2454FD"/>
<mask id="path-2-outside-1_5788_16636" maskUnits="userSpaceOnUse" x="20" y="5" width="121" height="12" fill="black">
<rect fill="white" x="20" y="5" width="121" height="12"/>
<path d="M27.612 14H26.248L26.094 13.274C25.533 13.835 24.73 14.165 23.795 14.165C21.969 14.165 20.594 12.922 20.594 11.261C20.594 9.578 21.958 8.335 23.795 8.335C24.719 8.335 25.533 8.654 26.094 9.226L26.248 8.5H27.612V14ZM22.134 11.261C22.134 12.152 22.97 12.801 24.125 12.801C25.291 12.801 26.072 12.174 26.072 11.261C26.072 10.337 25.28 9.688 24.125 9.688C22.97 9.688 22.134 10.348 22.134 11.261ZM29.1338 6.839C29.1338 6.432 29.4198 6.135 29.8598 6.135C30.2778 6.135 30.5638 6.432 30.5638 6.839C30.5638 7.279 30.2778 7.554 29.8598 7.554C29.4198 7.554 29.1338 7.279 29.1338 6.839ZM30.6298 14H29.0898V8.5H30.6298V14ZM36.3539 6.3V14H34.8139V6.3H36.3539ZM43.9727 11.635H38.9787C39.1437 12.427 39.8477 12.955 40.7717 12.955C41.4317 12.955 41.9597 12.713 42.2457 12.317H43.8077C43.3897 13.439 42.2127 14.165 40.7057 14.165C38.8137 14.165 37.3947 12.922 37.3947 11.261C37.3947 9.578 38.8027 8.335 40.7057 8.335C42.5867 8.335 43.9947 9.512 43.9947 11.261C43.9947 11.382 43.9947 11.514 43.9727 11.635ZM38.9787 10.865H42.4107C42.2567 10.084 41.6077 9.578 40.7057 9.578C39.8147 9.578 39.1437 10.095 38.9787 10.865ZM51.7282 14H50.3642L50.2102 13.274C49.6492 13.835 48.8462 14.165 47.9112 14.165C46.0852 14.165 44.7102 12.922 44.7102 11.261C44.7102 9.578 46.0742 8.335 47.9112 8.335C48.8352 8.335 49.6492 8.654 50.2102 9.226L50.3642 8.5H51.7282V14ZM46.2502 11.261C46.2502 12.152 47.0862 12.801 48.2412 12.801C49.4072 12.801 50.1882 12.174 50.1882 11.261C50.1882 10.337 49.3962 9.688 48.2412 9.688C47.0862 9.688 46.2502 10.348 46.2502 11.261ZM57.276 8.335V9.963C55.637 9.963 54.68 10.898 54.68 12.438V14H53.14V8.5H54.515L54.68 9.93C55.186 8.951 56.099 8.335 57.276 8.335ZM59.7718 11.437V14H58.2318V8.5H59.6068L59.7608 9.402C60.2448 8.742 60.9708 8.335 61.8288 8.335C63.4788 8.335 64.6338 9.6 64.6338 11.437V14H63.0938V11.437C63.0938 10.447 62.3898 9.754 61.4108 9.754C60.4318 9.754 59.7718 10.447 59.7718 11.437ZM66.1299 6.839C66.1299 6.432 66.4159 6.135 66.8559 6.135C67.2739 6.135 67.5599 6.432 67.5599 6.839C67.5599 7.279 67.2739 7.554 66.8559 7.554C66.4159 7.554 66.1299 7.279 66.1299 6.839ZM67.6259 14H66.0859V8.5H67.6259V14ZM70.6 11.437V14H69.06V8.5H70.435L70.589 9.402C71.073 8.742 71.799 8.335 72.657 8.335C74.307 8.335 75.462 9.6 75.462 11.437V14H73.922V11.437C73.922 10.447 73.218 9.754 72.239 9.754C71.26 9.754 70.6 10.447 70.6 11.437ZM81.985 13.846V13.131C81.424 13.659 80.621 13.967 79.708 13.967C77.882 13.967 76.507 12.79 76.507 11.173C76.507 9.523 77.871 8.335 79.708 8.335C80.643 8.335 81.446 8.643 82.007 9.193L82.161 8.5H83.525V13.846C83.525 15.529 82.106 16.75 80.17 16.75C78.399 16.75 77.079 15.815 76.727 14.506H78.267C78.619 15.056 79.301 15.408 80.126 15.408C81.226 15.408 81.985 14.781 81.985 13.846ZM78.047 11.162C78.047 11.998 78.883 12.614 80.038 12.614C81.204 12.614 81.985 12.02 81.985 11.162C81.985 10.293 81.193 9.688 80.038 9.688C78.883 9.688 78.047 10.293 78.047 11.162ZM87.6869 8.5H89.0619L89.2049 9.204C89.7659 8.654 90.5689 8.335 91.4929 8.335C93.3189 8.335 94.6939 9.578 94.6939 11.239C94.6939 12.922 93.3299 14.165 91.4929 14.165C90.5799 14.165 89.7879 13.857 89.2269 13.307V16.2H87.6869V8.5ZM93.1539 11.239C93.1539 10.337 92.3179 9.688 91.1629 9.688C90.0079 9.688 89.2269 10.326 89.2269 11.239C89.2269 12.163 90.0079 12.801 91.1629 12.801C92.3399 12.801 93.1539 12.141 93.1539 11.239ZM97.3158 6.3V14H95.7758V6.3H97.3158ZM105.375 14H104.011L103.857 13.274C103.296 13.835 102.493 14.165 101.558 14.165C99.7317 14.165 98.3567 12.922 98.3567 11.261C98.3567 9.578 99.7207 8.335 101.558 8.335C102.482 8.335 103.296 8.654 103.857 9.226L104.011 8.5H105.375V14ZM99.8967 11.261C99.8967 12.152 100.733 12.801 101.888 12.801C103.054 12.801 103.835 12.174 103.835 11.261C103.835 10.337 103.043 9.688 101.888 9.688C100.733 9.688 99.8967 10.348 99.8967 11.261ZM109.108 9.919V11.426C109.108 12.306 109.636 12.735 110.692 12.735V14.165C108.657 14.165 107.568 13.153 107.568 11.426V9.919H106.446V9.303L108.492 7.268H109.108V8.5H110.692V9.919H109.108ZM114.079 8.5H115.707V9.919H114.079V14H112.539V9.919H111.351V8.5H112.539C112.539 6.949 113.606 6.135 115.707 6.135V7.378C114.629 7.378 114.079 7.741 114.079 8.5ZM116.371 11.261C116.371 9.578 117.801 8.335 119.737 8.335C121.695 8.335 123.114 9.512 123.114 11.261C123.114 12.977 121.695 14.165 119.737 14.165C117.812 14.165 116.371 12.922 116.371 11.261ZM117.911 11.261C117.911 12.119 118.692 12.735 119.737 12.735C120.837 12.735 121.574 12.119 121.574 11.261C121.574 10.381 120.837 9.754 119.737 9.754C118.681 9.754 117.911 10.381 117.911 11.261ZM126.456 9.919V11.426C126.456 12.306 126.984 12.735 128.04 12.735V14.165C126.005 14.165 124.916 13.153 124.916 11.426V9.919H123.794V9.303L125.84 7.268H126.456V8.5H128.04V9.919H126.456ZM130.756 11.437V14H129.216V8.5H130.591L130.734 9.369C131.196 8.731 131.889 8.335 132.703 8.335C133.792 8.335 134.661 8.929 135.101 9.897C135.53 8.94 136.355 8.335 137.367 8.335C138.951 8.335 140.084 9.6 140.084 11.437V14H138.544V11.437C138.544 10.447 137.895 9.754 136.971 9.754C136.047 9.754 135.42 10.447 135.42 11.437V14H133.88V11.437C133.88 10.447 133.231 9.754 132.307 9.754C131.383 9.754 130.756 10.447 130.756 11.437Z"/>
</mask>
<path d="M27.612 14H26.248L26.094 13.274C25.533 13.835 24.73 14.165 23.795 14.165C21.969 14.165 20.594 12.922 20.594 11.261C20.594 9.578 21.958 8.335 23.795 8.335C24.719 8.335 25.533 8.654 26.094 9.226L26.248 8.5H27.612V14ZM22.134 11.261C22.134 12.152 22.97 12.801 24.125 12.801C25.291 12.801 26.072 12.174 26.072 11.261C26.072 10.337 25.28 9.688 24.125 9.688C22.97 9.688 22.134 10.348 22.134 11.261ZM29.1338 6.839C29.1338 6.432 29.4198 6.135 29.8598 6.135C30.2778 6.135 30.5638 6.432 30.5638 6.839C30.5638 7.279 30.2778 7.554 29.8598 7.554C29.4198 7.554 29.1338 7.279 29.1338 6.839ZM30.6298 14H29.0898V8.5H30.6298V14ZM36.3539 6.3V14H34.8139V6.3H36.3539ZM43.9727 11.635H38.9787C39.1437 12.427 39.8477 12.955 40.7717 12.955C41.4317 12.955 41.9597 12.713 42.2457 12.317H43.8077C43.3897 13.439 42.2127 14.165 40.7057 14.165C38.8137 14.165 37.3947 12.922 37.3947 11.261C37.3947 9.578 38.8027 8.335 40.7057 8.335C42.5867 8.335 43.9947 9.512 43.9947 11.261C43.9947 11.382 43.9947 11.514 43.9727 11.635ZM38.9787 10.865H42.4107C42.2567 10.084 41.6077 9.578 40.7057 9.578C39.8147 9.578 39.1437 10.095 38.9787 10.865ZM51.7282 14H50.3642L50.2102 13.274C49.6492 13.835 48.8462 14.165 47.9112 14.165C46.0852 14.165 44.7102 12.922 44.7102 11.261C44.7102 9.578 46.0742 8.335 47.9112 8.335C48.8352 8.335 49.6492 8.654 50.2102 9.226L50.3642 8.5H51.7282V14ZM46.2502 11.261C46.2502 12.152 47.0862 12.801 48.2412 12.801C49.4072 12.801 50.1882 12.174 50.1882 11.261C50.1882 10.337 49.3962 9.688 48.2412 9.688C47.0862 9.688 46.2502 10.348 46.2502 11.261ZM57.276 8.335V9.963C55.637 9.963 54.68 10.898 54.68 12.438V14H53.14V8.5H54.515L54.68 9.93C55.186 8.951 56.099 8.335 57.276 8.335ZM59.7718 11.437V14H58.2318V8.5H59.6068L59.7608 9.402C60.2448 8.742 60.9708 8.335 61.8288 8.335C63.4788 8.335 64.6338 9.6 64.6338 11.437V14H63.0938V11.437C63.0938 10.447 62.3898 9.754 61.4108 9.754C60.4318 9.754 59.7718 10.447 59.7718 11.437ZM66.1299 6.839C66.1299 6.432 66.4159 6.135 66.8559 6.135C67.2739 6.135 67.5599 6.432 67.5599 6.839C67.5599 7.279 67.2739 7.554 66.8559 7.554C66.4159 7.554 66.1299 7.279 66.1299 6.839ZM67.6259 14H66.0859V8.5H67.6259V14ZM70.6 11.437V14H69.06V8.5H70.435L70.589 9.402C71.073 8.742 71.799 8.335 72.657 8.335C74.307 8.335 75.462 9.6 75.462 11.437V14H73.922V11.437C73.922 10.447 73.218 9.754 72.239 9.754C71.26 9.754 70.6 10.447 70.6 11.437ZM81.985 13.846V13.131C81.424 13.659 80.621 13.967 79.708 13.967C77.882 13.967 76.507 12.79 76.507 11.173C76.507 9.523 77.871 8.335 79.708 8.335C80.643 8.335 81.446 8.643 82.007 9.193L82.161 8.5H83.525V13.846C83.525 15.529 82.106 16.75 80.17 16.75C78.399 16.75 77.079 15.815 76.727 14.506H78.267C78.619 15.056 79.301 15.408 80.126 15.408C81.226 15.408 81.985 14.781 81.985 13.846ZM78.047 11.162C78.047 11.998 78.883 12.614 80.038 12.614C81.204 12.614 81.985 12.02 81.985 11.162C81.985 10.293 81.193 9.688 80.038 9.688C78.883 9.688 78.047 10.293 78.047 11.162ZM87.6869 8.5H89.0619L89.2049 9.204C89.7659 8.654 90.5689 8.335 91.4929 8.335C93.3189 8.335 94.6939 9.578 94.6939 11.239C94.6939 12.922 93.3299 14.165 91.4929 14.165C90.5799 14.165 89.7879 13.857 89.2269 13.307V16.2H87.6869V8.5ZM93.1539 11.239C93.1539 10.337 92.3179 9.688 91.1629 9.688C90.0079 9.688 89.2269 10.326 89.2269 11.239C89.2269 12.163 90.0079 12.801 91.1629 12.801C92.3399 12.801 93.1539 12.141 93.1539 11.239ZM97.3158 6.3V14H95.7758V6.3H97.3158ZM105.375 14H104.011L103.857 13.274C103.296 13.835 102.493 14.165 101.558 14.165C99.7317 14.165 98.3567 12.922 98.3567 11.261C98.3567 9.578 99.7207 8.335 101.558 8.335C102.482 8.335 103.296 8.654 103.857 9.226L104.011 8.5H105.375V14ZM99.8967 11.261C99.8967 12.152 100.733 12.801 101.888 12.801C103.054 12.801 103.835 12.174 103.835 11.261C103.835 10.337 103.043 9.688 101.888 9.688C100.733 9.688 99.8967 10.348 99.8967 11.261ZM109.108 9.919V11.426C109.108 12.306 109.636 12.735 110.692 12.735V14.165C108.657 14.165 107.568 13.153 107.568 11.426V9.919H106.446V9.303L108.492 7.268H109.108V8.5H110.692V9.919H109.108ZM114.079 8.5H115.707V9.919H114.079V14H112.539V9.919H111.351V8.5H112.539C112.539 6.949 113.606 6.135 115.707 6.135V7.378C114.629 7.378 114.079 7.741 114.079 8.5ZM116.371 11.261C116.371 9.578 117.801 8.335 119.737 8.335C121.695 8.335 123.114 9.512 123.114 11.261C123.114 12.977 121.695 14.165 119.737 14.165C117.812 14.165 116.371 12.922 116.371 11.261ZM117.911 11.261C117.911 12.119 118.692 12.735 119.737 12.735C120.837 12.735 121.574 12.119 121.574 11.261C121.574 10.381 120.837 9.754 119.737 9.754C118.681 9.754 117.911 10.381 117.911 11.261ZM126.456 9.919V11.426C126.456 12.306 126.984 12.735 128.04 12.735V14.165C126.005 14.165 124.916 13.153 124.916 11.426V9.919H123.794V9.303L125.84 7.268H126.456V8.5H128.04V9.919H126.456ZM130.756 11.437V14H129.216V8.5H130.591L130.734 9.369C131.196 8.731 131.889 8.335 132.703 8.335C133.792 8.335 134.661 8.929 135.101 9.897C135.53 8.94 136.355 8.335 137.367 8.335C138.951 8.335 140.084 9.6 140.084 11.437V14H138.544V11.437C138.544 10.447 137.895 9.754 136.971 9.754C136.047 9.754 135.42 10.447 135.42 11.437V14H133.88V11.437C133.88 10.447 133.231 9.754 132.307 9.754C131.383 9.754 130.756 10.447 130.756 11.437Z" fill="white"/>
<path d="M27.612 14V14.15H27.762V14H27.612ZM26.248 14L26.1012 14.0311L26.1264 14.15H26.248V14ZM26.094 13.274L26.2407 13.2429L26.1833 12.9725L25.9879 13.1679L26.094 13.274ZM26.094 9.226L25.9869 9.33103L26.1827 9.53067L26.2407 9.25713L26.094 9.226ZM26.248 8.5V8.35H26.1264L26.1012 8.46887L26.248 8.5ZM27.612 8.5H27.762V8.35H27.612V8.5ZM27.612 14V13.85H26.248V14V14.15H27.612V14ZM26.248 14L26.3947 13.9689L26.2407 13.2429L26.094 13.274L25.9472 13.3051L26.1012 14.0311L26.248 14ZM26.094 13.274L25.9879 13.1679C25.4577 13.6982 24.6941 14.015 23.795 14.015V14.165V14.315C24.7658 14.315 25.6082 13.9718 26.2 13.3801L26.094 13.274ZM23.795 14.165V14.015C22.0376 14.015 20.744 12.8256 20.744 11.261H20.594H20.444C20.444 13.0184 21.9003 14.315 23.795 14.315V14.165ZM20.594 11.261H20.744C20.744 9.67336 22.0277 8.485 23.795 8.485V8.335V8.185C21.8882 8.185 20.444 9.48264 20.444 11.261H20.594ZM23.795 8.335V8.485C24.6847 8.485 25.458 8.79182 25.9869 9.33103L26.094 9.226L26.201 9.12097C25.6079 8.51618 24.7532 8.185 23.795 8.185V8.335ZM26.094 9.226L26.2407 9.25713L26.3947 8.53113L26.248 8.5L26.1012 8.46887L25.9472 9.19487L26.094 9.226ZM26.248 8.5V8.65H27.612V8.5V8.35H26.248V8.5ZM27.612 8.5H27.462V14H27.612H27.762V8.5H27.612ZM22.134 11.261H21.984C21.984 12.2683 22.9251 12.951 24.125 12.951V12.801V12.651C23.0149 12.651 22.284 12.0357 22.284 11.261H22.134ZM24.125 12.801V12.951C24.7336 12.951 25.2557 12.7874 25.629 12.4908C26.005 12.1921 26.222 11.7643 26.222 11.261H26.072H25.922C25.922 11.6707 25.7484 12.0129 25.4424 12.2559C25.1337 12.5011 24.6823 12.651 24.125 12.651V12.801ZM26.072 11.261H26.222C26.222 10.7525 26.0025 10.3169 25.6261 10.0115C25.2518 9.7079 24.7296 9.538 24.125 9.538V9.688V9.838C24.6753 9.838 25.1266 9.9926 25.4371 10.2445C25.7454 10.4946 25.922 10.8455 25.922 11.261H26.072ZM24.125 9.688V9.538C22.922 9.538 21.984 10.2341 21.984 11.261H22.134H22.284C22.284 10.4619 23.0179 9.838 24.125 9.838V9.688ZM30.6298 14V14.15H30.7798V14H30.6298ZM29.0898 14H28.9398V14.15H29.0898V14ZM29.0898 8.5V8.35H28.9398V8.5H29.0898ZM30.6298 8.5H30.7798V8.35H30.6298V8.5ZM29.1338 6.839H29.2838C29.2838 6.67149 29.3421 6.53522 29.4373 6.44102C29.5325 6.34691 29.6745 6.285 29.8598 6.285V6.135V5.985C29.6052 5.985 29.3842 6.07159 29.2263 6.22773C29.0686 6.38378 28.9838 6.59951 28.9838 6.839H29.1338ZM29.8598 6.135V6.285C30.0321 6.285 30.1686 6.34553 30.2619 6.43985C30.3555 6.53442 30.4138 6.67137 30.4138 6.839H30.5638H30.7138C30.7138 6.59962 30.6292 6.38458 30.4752 6.2289C30.321 6.07297 30.1055 5.985 29.8598 5.985V6.135ZM30.5638 6.839H30.4138C30.4138 7.02576 30.3538 7.16413 30.2625 7.25543C30.1711 7.34688 30.0354 7.404 29.8598 7.404V7.554V7.704C30.1023 7.704 30.3186 7.62362 30.4746 7.46757C30.6308 7.31137 30.7138 7.09224 30.7138 6.839H30.5638ZM29.8598 7.554V7.404C29.6713 7.404 29.5301 7.34563 29.4367 7.25427C29.3437 7.16331 29.2838 7.02568 29.2838 6.839H29.1338H28.9838C28.9838 7.09232 29.0669 7.31219 29.2269 7.46872C29.3865 7.62487 29.6084 7.704 29.8598 7.704V7.554ZM30.6298 14V13.85H29.0898V14V14.15H30.6298V14ZM29.0898 14H29.2398V8.5H29.0898H28.9398V14H29.0898ZM29.0898 8.5V8.65H30.6298V8.5V8.35H29.0898V8.5ZM30.6298 8.5H30.4798V14H30.6298H30.7798V8.5H30.6298ZM36.3539 6.3H36.5039V6.15H36.3539V6.3ZM36.3539 14V14.15H36.5039V14H36.3539ZM34.8139 14H34.6639V14.15H34.8139V14ZM34.8139 6.3V6.15H34.6639V6.3H34.8139ZM36.3539 6.3H36.2039V14H36.3539H36.5039V6.3H36.3539ZM36.3539 14V13.85H34.8139V14V14.15H36.3539V14ZM34.8139 14H34.9639V6.3H34.8139H34.6639V14H34.8139ZM34.8139 6.3V6.45H36.3539V6.3V6.15H34.8139V6.3ZM43.9727 11.635V11.785H44.0979L44.1203 11.6618L43.9727 11.635ZM38.9787 11.635V11.485H38.7943L38.8319 11.6656L38.9787 11.635ZM42.2457 12.317V12.167H42.169L42.1241 12.2292L42.2457 12.317ZM43.8077 12.317L43.9483 12.3694L44.0237 12.167H43.8077V12.317ZM38.9787 10.865L38.8321 10.8336L38.7932 11.015H38.9787V10.865ZM42.4107 10.865V11.015H42.5932L42.5579 10.836L42.4107 10.865ZM43.9727 11.635V11.485H38.9787V11.635V11.785H43.9727V11.635ZM38.9787 11.635L38.8319 11.6656C39.0137 12.5383 39.7888 13.105 40.7717 13.105V12.955V12.805C39.9067 12.805 39.2738 12.3157 39.1256 11.6044L38.9787 11.635ZM40.7717 12.955V13.105C41.466 13.105 42.0459 12.8499 42.3673 12.4048L42.2457 12.317L42.1241 12.2292C41.8736 12.5761 41.3975 12.805 40.7717 12.805V12.955ZM42.2457 12.317V12.467H43.8077V12.317V12.167H42.2457V12.317ZM43.8077 12.317L43.6672 12.2646C43.2764 13.3137 42.1668 14.015 40.7057 14.015V14.165V14.315C42.2587 14.315 43.5031 13.5643 43.9483 12.3694L43.8077 12.317ZM40.7057 14.165V14.015C38.8774 14.015 37.5447 12.8212 37.5447 11.261H37.3947H37.2447C37.2447 13.0228 38.75 14.315 40.7057 14.315V14.165ZM37.3947 11.261H37.5447C37.5447 9.67777 38.8676 8.485 40.7057 8.485V8.335V8.185C38.7379 8.185 37.2447 9.47823 37.2447 11.261H37.3947ZM40.7057 8.335V8.485C42.5236 8.485 43.8447 9.61325 43.8447 11.261H43.9947H44.1447C44.1447 9.41075 42.6499 8.185 40.7057 8.185V8.335ZM43.9947 11.261H43.8447C43.8447 11.3847 43.8443 11.5028 43.8252 11.6082L43.9727 11.635L44.1203 11.6618C44.1452 11.5252 44.1447 11.3793 44.1447 11.261H43.9947ZM38.9787 10.865V11.015H42.4107V10.865V10.715H38.9787V10.865ZM42.4107 10.865L42.5579 10.836C42.3882 9.97547 41.6696 9.428 40.7057 9.428V9.578V9.728C41.5459 9.728 42.1253 10.1925 42.2636 10.894L42.4107 10.865ZM40.7057 9.578V9.428C39.7532 9.428 39.0137 9.98583 38.8321 10.8336L38.9787 10.865L39.1254 10.8964C39.2737 10.2042 39.8763 9.728 40.7057 9.728V9.578ZM51.7282 14V14.15H51.8782V14H51.7282ZM50.3642 14L50.2174 14.0311L50.2426 14.15H50.3642V14ZM50.2102 13.274L50.3569 13.2429L50.2995 12.9725L50.1041 13.1679L50.2102 13.274ZM50.2102 9.226L50.1031 9.33103L50.2989 9.53067L50.3569 9.25713L50.2102 9.226ZM50.3642 8.5V8.35H50.2426L50.2174 8.46887L50.3642 8.5ZM51.7282 8.5H51.8782V8.35H51.7282V8.5ZM51.7282 14V13.85H50.3642V14V14.15H51.7282V14ZM50.3642 14L50.5109 13.9689L50.3569 13.2429L50.2102 13.274L50.0634 13.3051L50.2174 14.0311L50.3642 14ZM50.2102 13.274L50.1041 13.1679C49.5739 13.6982 48.8103 14.015 47.9112 14.015V14.165V14.315C48.882 14.315 49.7245 13.9718 50.3162 13.3801L50.2102 13.274ZM47.9112 14.165V14.015C46.1538 14.015 44.8602 12.8256 44.8602 11.261H44.7102H44.5602C44.5602 13.0184 46.0166 14.315 47.9112 14.315V14.165ZM44.7102 11.261H44.8602C44.8602 9.67336 46.1439 8.485 47.9112 8.485V8.335V8.185C46.0044 8.185 44.5602 9.48264 44.5602 11.261H44.7102ZM47.9112 8.335V8.485C48.8009 8.485 49.5742 8.79182 50.1031 9.33103L50.2102 9.226L50.3173 9.12097C49.7241 8.51618 48.8694 8.185 47.9112 8.185V8.335ZM50.2102 9.226L50.3569 9.25713L50.5109 8.53113L50.3642 8.5L50.2174 8.46887L50.0634 9.19487L50.2102 9.226ZM50.3642 8.5V8.65H51.7282V8.5V8.35H50.3642V8.5ZM51.7282 8.5H51.5782V14H51.7282H51.8782V8.5H51.7282ZM46.2502 11.261H46.1002C46.1002 12.2683 47.0413 12.951 48.2412 12.951V12.801V12.651C47.1311 12.651 46.4002 12.0357 46.4002 11.261H46.2502ZM48.2412 12.801V12.951C48.8498 12.951 49.3719 12.7874 49.7452 12.4908C50.1212 12.1921 50.3382 11.7643 50.3382 11.261H50.1882H50.0382C50.0382 11.6707 49.8646 12.0129 49.5586 12.2559C49.2499 12.5011 48.7985 12.651 48.2412 12.651V12.801ZM50.1882 11.261H50.3382C50.3382 10.7525 50.1187 10.3169 49.7423 10.0115C49.368 9.7079 48.8458 9.538 48.2412 9.538V9.688V9.838C48.7915 9.838 49.2428 9.9926 49.5533 10.2445C49.8616 10.4946 50.0382 10.8455 50.0382 11.261H50.1882ZM48.2412 9.688V9.538C47.0382 9.538 46.1002 10.2341 46.1002 11.261H46.2502H46.4002C46.4002 10.4619 47.1341 9.838 48.2412 9.838V9.688ZM57.276 8.335H57.426V8.185H57.276V8.335ZM57.276 9.963V10.113H57.426V9.963H57.276ZM54.68 14V14.15H54.83V14H54.68ZM53.14 14H52.99V14.15H53.14V14ZM53.14 8.5V8.35H52.99V8.5H53.14ZM54.515 8.5L54.664 8.48281L54.6487 8.35H54.515V8.5ZM54.68 9.93L54.531 9.94719L54.5874 10.4359L54.8133 9.99887L54.68 9.93ZM57.276 8.335H57.126V9.963H57.276H57.426V8.335H57.276ZM57.276 9.963V9.813C56.4285 9.813 55.7384 10.0552 55.2595 10.5148C54.7799 10.9751 54.53 11.6364 54.53 12.438H54.68H54.83C54.83 11.6996 55.0587 11.1234 55.4673 10.7312C55.8766 10.3383 56.4846 10.113 57.276 10.113V9.963ZM54.68 12.438H54.53V14H54.68H54.83V12.438H54.68ZM54.68 14V13.85H53.14V14V14.15H54.68V14ZM53.14 14H53.29V8.5H53.14H52.99V14H53.14ZM53.14 8.5V8.65H54.515V8.5V8.35H53.14V8.5ZM54.515 8.5L54.366 8.51719L54.531 9.94719L54.68 9.93L54.829 9.91281L54.664 8.48281L54.515 8.5ZM54.68 9.93L54.8133 9.99887C55.2952 9.06646 56.1587 8.485 57.276 8.485V8.335V8.185C56.0394 8.185 55.0769 8.83554 54.5468 9.86113L54.68 9.93ZM59.7718 14V14.15H59.9218V14H59.7718ZM58.2318 14H58.0818V14.15H58.2318V14ZM58.2318 8.5V8.35H58.0818V8.5H58.2318ZM59.6068 8.5L59.7547 8.47476L59.7334 8.35H59.6068V8.5ZM59.7608 9.402L59.613 9.42724L59.6725 9.77607L59.8818 9.4907L59.7608 9.402ZM64.6338 14V14.15H64.7838V14H64.6338ZM63.0938 14H62.9438V14.15H63.0938V14ZM59.7718 11.437H59.6218V14H59.7718H59.9218V11.437H59.7718ZM59.7718 14V13.85H58.2318V14V14.15H59.7718V14ZM58.2318 14H58.3818V8.5H58.2318H58.0818V14H58.2318ZM58.2318 8.5V8.65H59.6068V8.5V8.35H58.2318V8.5ZM59.6068 8.5L59.459 8.52524L59.613 9.42724L59.7608 9.402L59.9087 9.37676L59.7547 8.47476L59.6068 8.5ZM59.7608 9.402L59.8818 9.4907C60.3397 8.86622 61.0222 8.485 61.8288 8.485V8.335V8.185C60.9194 8.185 60.1499 8.61778 59.6399 9.3133L59.7608 9.402ZM61.8288 8.335V8.485C62.6134 8.485 63.2737 8.78475 63.739 9.29789C64.2053 9.8121 64.4838 10.5499 64.4838 11.437H64.6338H64.7838C64.7838 10.4871 64.4849 9.6739 63.9612 9.09636C63.4365 8.51775 62.6943 8.185 61.8288 8.185V8.335ZM64.6338 11.437H64.4838V14H64.6338H64.7838V11.437H64.6338ZM64.6338 14V13.85H63.0938V14V14.15H64.6338V14ZM63.0938 14H63.2438V11.437H63.0938H62.9438V14H63.0938ZM63.0938 11.437H63.2438C63.2438 10.9054 63.0542 10.4453 62.7253 10.1179C62.3965 9.79065 61.9366 9.604 61.4108 9.604V9.754V9.904C61.8641 9.904 62.2457 10.0638 62.5136 10.3306C62.7815 10.5972 62.9438 10.9786 62.9438 11.437H63.0938ZM61.4108 9.754V9.604C60.8846 9.604 60.4347 9.79103 60.1164 10.1199C59.7986 10.4484 59.6218 10.9082 59.6218 11.437H59.7718H59.9218C59.9218 10.9758 60.0751 10.5941 60.332 10.3286C60.5885 10.0635 60.958 9.904 61.4108 9.904V9.754ZM67.6259 14V14.15H67.7759V14H67.6259ZM66.0859 14H65.9359V14.15H66.0859V14ZM66.0859 8.5V8.35H65.9359V8.5H66.0859ZM67.6259 8.5H67.7759V8.35H67.6259V8.5ZM66.1299 6.839H66.2799C66.2799 6.67149 66.3382 6.53522 66.4334 6.44102C66.5285 6.34691 66.6706 6.285 66.8559 6.285V6.135V5.985C66.6013 5.985 66.3803 6.07159 66.2224 6.22773C66.0647 6.38378 65.9799 6.59951 65.9799 6.839H66.1299ZM66.8559 6.135V6.285C67.0282 6.285 67.1647 6.34553 67.258 6.43985C67.3515 6.53442 67.4099 6.67137 67.4099 6.839H67.5599H67.7099C67.7099 6.59962 67.6253 6.38458 67.4713 6.2289C67.3171 6.07297 67.1016 5.985 66.8559 5.985V6.135ZM67.5599 6.839H67.4099C67.4099 7.02576 67.3499 7.16413 67.2586 7.25543C67.1672 7.34688 67.0315 7.404 66.8559 7.404V7.554V7.704C67.0984 7.704 67.3147 7.62362 67.4707 7.46757C67.6269 7.31137 67.7099 7.09224 67.7099 6.839H67.5599ZM66.8559 7.554V7.404C66.6674 7.404 66.5262 7.34563 66.4328 7.25427C66.3398 7.16331 66.2799 7.02568 66.2799 6.839H66.1299H65.9799C65.9799 7.09232 66.063 7.31219 66.223 7.46872C66.3826 7.62487 66.6044 7.704 66.8559 7.704V7.554ZM67.6259 14V13.85H66.0859V14V14.15H67.6259V14ZM66.0859 14H66.2359V8.5H66.0859H65.9359V14H66.0859ZM66.0859 8.5V8.65H67.6259V8.5V8.35H66.0859V8.5ZM67.6259 8.5H67.4759V14H67.6259H67.7759V8.5H67.6259ZM70.6 14V14.15H70.75V14H70.6ZM69.06 14H68.91V14.15H69.06V14ZM69.06 8.5V8.35H68.91V8.5H69.06ZM70.435 8.5L70.5828 8.47476L70.5615 8.35H70.435V8.5ZM70.589 9.402L70.4411 9.42724L70.5007 9.77607L70.7099 9.4907L70.589 9.402ZM75.462 14V14.15H75.612V14H75.462ZM73.922 14H73.772V14.15H73.922V14ZM70.6 11.437H70.45V14H70.6H70.75V11.437H70.6ZM70.6 14V13.85H69.06V14V14.15H70.6V14ZM69.06 14H69.21V8.5H69.06H68.91V14H69.06ZM69.06 8.5V8.65H70.435V8.5V8.35H69.06V8.5ZM70.435 8.5L70.2871 8.52524L70.4411 9.42724L70.589 9.402L70.7368 9.37676L70.5828 8.47476L70.435 8.5ZM70.589 9.402L70.7099 9.4907C71.1679 8.86622 71.8504 8.485 72.657 8.485V8.335V8.185C71.7476 8.185 70.978 8.61778 70.468 9.3133L70.589 9.402ZM72.657 8.335V8.485C73.4415 8.485 74.1018 8.78475 74.5671 9.29789C75.0334 9.8121 75.312 10.5499 75.312 11.437H75.462H75.612C75.612 10.4871 75.313 9.6739 74.7893 9.09636C74.2646 8.51775 73.5224 8.185 72.657 8.185V8.335ZM75.462 11.437H75.312V14H75.462H75.612V11.437H75.462ZM75.462 14V13.85H73.922V14V14.15H75.462V14ZM73.922 14H74.072V11.437H73.922H73.772V14H73.922ZM73.922 11.437H74.072C74.072 10.9054 73.8823 10.4453 73.5534 10.1179C73.2246 9.79065 72.7647 9.604 72.239 9.604V9.754V9.904C72.6922 9.904 73.0738 10.0638 73.3418 10.3306C73.6096 10.5972 73.772 10.9786 73.772 11.437H73.922ZM72.239 9.754V9.604C71.7128 9.604 71.2628 9.79103 70.9445 10.1199C70.6267 10.4484 70.45 10.9082 70.45 11.437H70.6H70.75C70.75 10.9758 70.9032 10.5941 71.1601 10.3286C71.4166 10.0635 71.7862 9.904 72.239 9.904V9.754ZM81.985 13.131H82.135V12.7838L81.8822 13.0218L81.985 13.131ZM82.007 9.193L81.902 9.30011L82.0949 9.48918L82.1535 9.22554L82.007 9.193ZM82.161 8.5V8.35H82.0407L82.0146 8.46746L82.161 8.5ZM83.525 8.5H83.675V8.35H83.525V8.5ZM76.727 14.506V14.356H76.5314L76.5822 14.545L76.727 14.506ZM78.267 14.506L78.3934 14.4251L78.3491 14.356H78.267V14.506ZM81.985 13.846H82.135V13.131H81.985H81.835V13.846H81.985ZM81.985 13.131L81.8822 13.0218C81.3524 13.5204 80.5877 13.817 79.708 13.817V13.967V14.117C80.6544 14.117 81.4957 13.7976 82.0878 13.2402L81.985 13.131ZM79.708 13.967V13.817C77.9442 13.817 76.657 12.6879 76.657 11.173H76.507H76.357C76.357 12.8921 77.8199 14.117 79.708 14.117V13.967ZM76.507 11.173H76.657C76.657 9.623 77.9356 8.485 79.708 8.485V8.335V8.185C77.8065 8.185 76.357 9.423 76.357 11.173H76.507ZM79.708 8.335V8.485C80.6101 8.485 81.3733 8.78172 81.902 9.30011L82.007 9.193L82.1121 9.08589C81.5188 8.50428 80.676 8.185 79.708 8.185V8.335ZM82.007 9.193L82.1535 9.22554L82.3075 8.53254L82.161 8.5L82.0146 8.46746L81.8606 9.16046L82.007 9.193ZM82.161 8.5V8.65H83.525V8.5V8.35H82.161V8.5ZM83.525 8.5H83.375V13.846H83.525H83.675V8.5H83.525ZM83.525 13.846H83.375C83.375 15.4263 82.0445 16.6 80.17 16.6V16.75V16.9C82.1676 16.9 83.675 15.6317 83.675 13.846H83.525ZM80.17 16.75V16.6C78.4497 16.6 77.2022 15.6953 76.8719 14.467L76.727 14.506L76.5822 14.545C76.9559 15.9347 78.3484 16.9 80.17 16.9V16.75ZM76.727 14.506V14.656H78.267V14.506V14.356H76.727V14.506ZM78.267 14.506L78.1407 14.5869C78.5253 15.1877 79.2599 15.558 80.126 15.558V15.408V15.258C79.3422 15.258 78.7128 14.9243 78.3934 14.4251L78.267 14.506ZM80.126 15.408V15.558C80.7036 15.558 81.2047 15.3933 81.5643 15.0927C81.926 14.7902 82.135 14.3574 82.135 13.846H81.985H81.835C81.835 14.2696 81.6646 14.6178 81.3718 14.8626C81.0768 15.1092 80.6484 15.258 80.126 15.258V15.408ZM78.047 11.162H77.897C77.897 11.6351 78.1351 12.0404 78.5209 12.3226C78.9048 12.6034 79.4352 12.764 80.038 12.764V12.614V12.464C79.4858 12.464 79.0208 12.3166 78.698 12.0804C78.377 11.8456 78.197 11.5249 78.197 11.162H78.047ZM80.038 12.614V12.764C80.645 12.764 81.1657 12.6095 81.5388 12.3297C81.9149 12.0477 82.135 11.6415 82.135 11.162H81.985H81.835C81.835 11.5405 81.6647 11.8603 81.3588 12.0897C81.0498 12.3215 80.5971 12.464 80.038 12.464V12.614ZM81.985 11.162H82.135C82.135 10.6772 81.9123 10.2658 81.5354 9.97965C81.1612 9.69563 80.6403 9.538 80.038 9.538V9.688V9.838C80.5908 9.838 81.0434 9.98287 81.354 10.2186C81.6618 10.4522 81.835 10.7778 81.835 11.162H81.985ZM80.038 9.688V9.538C79.4359 9.538 78.905 9.69556 78.5206 9.97828C78.1335 10.2629 77.897 10.6741 77.897 11.162H78.047H78.197C78.197 10.7809 78.3785 10.4551 78.6983 10.22C79.0206 9.98294 79.4852 9.838 80.038 9.838V9.688ZM87.6869 8.5V8.35H87.5369V8.5H87.6869ZM89.0619 8.5L89.2089 8.47014L89.1845 8.35H89.0619V8.5ZM89.2049 9.204L89.0579 9.23386L89.1128 9.50432L89.3099 9.31111L89.2049 9.204ZM89.2269 13.307L89.3319 13.1999L89.0769 12.9499V13.307H89.2269ZM89.2269 16.2V16.35H89.3769V16.2H89.2269ZM87.6869 16.2H87.5369V16.35H87.6869V16.2ZM87.6869 8.5V8.65H89.0619V8.5V8.35H87.6869V8.5ZM89.0619 8.5L88.9149 8.52986L89.0579 9.23386L89.2049 9.204L89.3519 9.17414L89.2089 8.47014L89.0619 8.5ZM89.2049 9.204L89.3099 9.31111C89.8398 8.79167 90.6036 8.485 91.4929 8.485V8.335V8.185C90.5343 8.185 89.6921 8.51633 89.0999 9.09689L89.2049 9.204ZM91.4929 8.335V8.485C93.2503 8.485 94.5439 9.67439 94.5439 11.239H94.6939H94.8439C94.8439 9.48161 93.3875 8.185 91.4929 8.185V8.335ZM94.6939 11.239H94.5439C94.5439 12.8266 93.2602 14.015 91.4929 14.015V14.165V14.315C93.3997 14.315 94.8439 13.0174 94.8439 11.239H94.6939ZM91.4929 14.165V14.015C90.614 14.015 89.8614 13.719 89.3319 13.1999L89.2269 13.307L89.1219 13.4141C89.7145 13.995 90.5459 14.315 91.4929 14.315V14.165ZM89.2269 13.307H89.0769V16.2H89.2269H89.3769V13.307H89.2269ZM89.2269 16.2V16.05H87.6869V16.2V16.35H89.2269V16.2ZM87.6869 16.2H87.8369V8.5H87.6869H87.5369V16.2H87.6869ZM93.1539 11.239H93.3039C93.3039 10.2213 92.3636 9.538 91.1629 9.538V9.688V9.838C92.2722 9.838 93.0039 10.4527 93.0039 11.239H93.1539ZM91.1629 9.688V9.538C90.5588 9.538 90.0394 9.70485 89.6677 10.0043C89.2936 10.3057 89.0769 10.736 89.0769 11.239H89.2269H89.3769C89.3769 10.829 89.5507 10.4838 89.8559 10.2379C90.1634 9.99015 90.612 9.838 91.1629 9.838V9.688ZM89.2269 11.239H89.0769C89.0769 11.747 89.2932 12.18 89.6674 12.4831C90.0392 12.7842 90.5589 12.951 91.1629 12.951V12.801V12.651C90.612 12.651 90.1636 12.4988 89.8562 12.2499C89.5512 12.003 89.3769 11.655 89.3769 11.239H89.2269ZM91.1629 12.801V12.951C92.3883 12.951 93.3039 12.2545 93.3039 11.239H93.1539H93.0039C93.0039 12.0275 92.2915 12.651 91.1629 12.651V12.801ZM97.3158 6.3H97.4658V6.15H97.3158V6.3ZM97.3158 14V14.15H97.4658V14H97.3158ZM95.7758 14H95.6258V14.15H95.7758V14ZM95.7758 6.3V6.15H95.6258V6.3H95.7758ZM97.3158 6.3H97.1658V14H97.3158H97.4658V6.3H97.3158ZM97.3158 14V13.85H95.7758V14V14.15H97.3158V14ZM95.7758 14H95.9258V6.3H95.7758H95.6258V14H95.7758ZM95.7758 6.3V6.45H97.3158V6.3V6.15H95.7758V6.3ZM105.375 14V14.15H105.525V14H105.375ZM104.011 14L103.864 14.0311L103.889 14.15H104.011V14ZM103.857 13.274L104.003 13.2429L103.946 12.9725L103.751 13.1679L103.857 13.274ZM103.857 9.226L103.75 9.33103L103.945 9.53067L104.003 9.25713L103.857 9.226ZM104.011 8.5V8.35H103.889L103.864 8.46887L104.011 8.5ZM105.375 8.5H105.525V8.35H105.375V8.5ZM105.375 14V13.85H104.011V14V14.15H105.375V14ZM104.011 14L104.157 13.9689L104.003 13.2429L103.857 13.274L103.71 13.3051L103.864 14.0311L104.011 14ZM103.857 13.274L103.751 13.1679C103.22 13.6982 102.457 14.015 101.558 14.015V14.165V14.315C102.529 14.315 103.371 13.9718 103.963 13.3801L103.857 13.274ZM101.558 14.165V14.015C99.8003 14.015 98.5067 12.8256 98.5067 11.261H98.3567H98.2067C98.2067 13.0184 99.663 14.315 101.558 14.315V14.165ZM98.3567 11.261H98.5067C98.5067 9.67336 99.7904 8.485 101.558 8.485V8.335V8.185C99.6509 8.185 98.2067 9.48264 98.2067 11.261H98.3567ZM101.558 8.335V8.485C102.447 8.485 103.221 8.79182 103.75 9.33103L103.857 9.226L103.964 9.12097C103.371 8.51618 102.516 8.185 101.558 8.185V8.335ZM103.857 9.226L104.003 9.25713L104.157 8.53113L104.011 8.5L103.864 8.46887L103.71 9.19487L103.857 9.226ZM104.011 8.5V8.65H105.375V8.5V8.35H104.011V8.5ZM105.375 8.5H105.225V14H105.375H105.525V8.5H105.375ZM99.8967 11.261H99.7467C99.7467 12.2683 100.688 12.951 101.888 12.951V12.801V12.651C100.778 12.651 100.047 12.0357 100.047 11.261H99.8967ZM101.888 12.801V12.951C102.496 12.951 103.018 12.7874 103.392 12.4908C103.768 12.1921 103.985 11.7643 103.985 11.261H103.835H103.685C103.685 11.6707 103.511 12.0129 103.205 12.2559C102.896 12.5011 102.445 12.651 101.888 12.651V12.801ZM103.835 11.261H103.985C103.985 10.7525 103.765 10.3169 103.389 10.0115C103.015 9.7079 102.492 9.538 101.888 9.538V9.688V9.838C102.438 9.838 102.889 9.9926 103.2 10.2445C103.508 10.4946 103.685 10.8455 103.685 11.261H103.835ZM101.888 9.688V9.538C100.685 9.538 99.7467 10.2341 99.7467 11.261H99.8967H100.047C100.047 10.4619 100.781 9.838 101.888 9.838V9.688ZM109.108 9.919V9.769H108.958V9.919H109.108ZM110.692 12.735H110.842V12.585H110.692V12.735ZM110.692 14.165V14.315H110.842V14.165H110.692ZM107.568 9.919H107.718V9.769H107.568V9.919ZM106.446 9.919H106.296V10.069H106.446V9.919ZM106.446 9.303L106.34 9.19665L106.296 9.24063V9.303H106.446ZM108.492 7.268V7.118H108.43L108.386 7.16165L108.492 7.268ZM109.108 7.268H109.258V7.118H109.108V7.268ZM109.108 8.5H108.958V8.65H109.108V8.5ZM110.692 8.5H110.842V8.35H110.692V8.5ZM110.692 9.919V10.069H110.842V9.919H110.692ZM109.108 9.919H108.958V11.426H109.108H109.258V9.919H109.108ZM109.108 11.426H108.958C108.958 11.8971 109.1 12.2729 109.408 12.5263C109.71 12.7751 110.147 12.885 110.692 12.885V12.735V12.585C110.18 12.585 109.825 12.4804 109.599 12.2947C109.379 12.1136 109.258 11.8349 109.258 11.426H109.108ZM110.692 12.735H110.542V14.165H110.692H110.842V12.735H110.692ZM110.692 14.165V14.015C109.697 14.015 108.957 13.7677 108.466 13.3311C107.978 12.8968 107.718 12.2569 107.718 11.426H107.568H107.418C107.418 12.3221 107.701 13.0517 108.267 13.5552C108.83 14.0563 109.651 14.315 110.692 14.315V14.165ZM107.568 11.426H107.718V9.919H107.568H107.418V11.426H107.568ZM107.568 9.919V9.769H106.446V9.919V10.069H107.568V9.919ZM106.446 9.919H106.596V9.303H106.446H106.296V9.919H106.446ZM106.446 9.303L106.551 9.40935L108.597 7.37435L108.492 7.268L108.386 7.16165L106.34 9.19665L106.446 9.303ZM108.492 7.268V7.418H109.108V7.268V7.118H108.492V7.268ZM109.108 7.268H108.958V8.5H109.108H109.258V7.268H109.108ZM109.108 8.5V8.65H110.692V8.5V8.35H109.108V8.5ZM110.692 8.5H110.542V9.919H110.692H110.842V8.5H110.692ZM110.692 9.919V9.769H109.108V9.919V10.069H110.692V9.919ZM114.079 8.5H113.929V8.65H114.079V8.5ZM115.707 8.5H115.857V8.35H115.707V8.5ZM115.707 9.919V10.069H115.857V9.919H115.707ZM114.079 9.919V9.769H113.929V9.919H114.079ZM114.079 14V14.15H114.229V14H114.079ZM112.539 14H112.389V14.15H112.539V14ZM112.539 9.919H112.689V9.769H112.539V9.919ZM111.351 9.919H111.201V10.069H111.351V9.919ZM111.351 8.5V8.35H111.201V8.5H111.351ZM112.539 8.5V8.65H112.689V8.5H112.539ZM115.707 6.135H115.857V5.985H115.707V6.135ZM115.707 7.378V7.528H115.857V7.378H115.707ZM114.079 8.5V8.65H115.707V8.5V8.35H114.079V8.5ZM115.707 8.5H115.557V9.919H115.707H115.857V8.5H115.707ZM115.707 9.919V9.769H114.079V9.919V10.069H115.707V9.919ZM114.079 9.919H113.929V14H114.079H114.229V9.919H114.079ZM114.079 14V13.85H112.539V14V14.15H114.079V14ZM112.539 14H112.689V9.919H112.539H112.389V14H112.539ZM112.539 9.919V9.769H111.351V9.919V10.069H112.539V9.919ZM111.351 9.919H111.501V8.5H111.351H111.201V9.919H111.351ZM111.351 8.5V8.65H112.539V8.5V8.35H111.351V8.5ZM112.539 8.5H112.689C112.689 7.7625 112.94 7.21979 113.425 6.85584C113.917 6.48618 114.671 6.285 115.707 6.285V6.135V5.985C114.641 5.985 113.811 6.19082 113.245 6.61591C112.671 7.04671 112.389 7.6865 112.389 8.5H112.539ZM115.707 6.135H115.557V7.378H115.707H115.857V6.135H115.707ZM115.707 7.378V7.228C115.156 7.228 114.713 7.31989 114.404 7.53044C114.084 7.74818 113.929 8.0788 113.929 8.5H114.079H114.229C114.229 8.1622 114.348 7.93182 114.573 7.77831C114.809 7.61761 115.18 7.528 115.707 7.528V7.378ZM116.371 11.261H116.521C116.521 9.67989 117.864 8.485 119.737 8.485V8.335V8.185C117.739 8.185 116.221 9.47611 116.221 11.261H116.371ZM119.737 8.335V8.485C120.687 8.485 121.495 8.7703 122.063 9.25611C122.629 9.74033 122.964 10.4301 122.964 11.261H123.114H123.264C123.264 10.3429 122.891 9.56967 122.258 9.02814C121.626 8.4882 120.746 8.185 119.737 8.185V8.335ZM123.114 11.261H122.964C122.964 12.8727 121.636 14.015 119.737 14.015V14.165V14.315C121.755 14.315 123.264 13.0813 123.264 11.261H123.114ZM119.737 14.165V14.015C117.874 14.015 116.521 12.8191 116.521 11.261H116.371H116.221C116.221 13.0249 117.751 14.315 119.737 14.315V14.165ZM117.911 11.261H117.761C117.761 12.2311 118.642 12.885 119.737 12.885V12.735V12.585C118.743 12.585 118.061 12.0069 118.061 11.261H117.911ZM119.737 12.735V12.885C120.314 12.885 120.809 12.7234 121.163 12.4362C121.519 12.1473 121.724 11.7365 121.724 11.261H121.574H121.424C121.424 11.6435 121.261 11.9697 120.974 12.2033C120.684 12.4386 120.26 12.585 119.737 12.585V12.735ZM121.574 11.261H121.724C121.724 10.7758 121.52 10.357 121.164 10.062C120.81 9.76873 120.315 9.604 119.737 9.604V9.754V9.904C120.26 9.904 120.683 10.0528 120.973 10.293C121.26 10.5315 121.424 10.8662 121.424 11.261H121.574ZM119.737 9.754V9.604C118.627 9.604 117.761 10.272 117.761 11.261H117.911H118.061C118.061 10.49 118.735 9.904 119.737 9.904V9.754ZM126.456 9.919V9.769H126.306V9.919H126.456ZM128.04 12.735H128.19V12.585H128.04V12.735ZM128.04 14.165V14.315H128.19V14.165H128.04ZM124.916 9.919H125.066V9.769H124.916V9.919ZM123.794 9.919H123.644V10.069H123.794V9.919ZM123.794 9.303L123.688 9.19665L123.644 9.24063V9.303H123.794ZM125.84 7.268V7.118H125.778L125.734 7.16165L125.84 7.268ZM126.456 7.268H126.606V7.118H126.456V7.268ZM126.456 8.5H126.306V8.65H126.456V8.5ZM128.04 8.5H128.19V8.35H128.04V8.5ZM128.04 9.919V10.069H128.19V9.919H128.04ZM126.456 9.919H126.306V11.426H126.456H126.606V9.919H126.456ZM126.456 11.426H126.306C126.306 11.8971 126.449 12.2729 126.757 12.5263C127.059 12.7751 127.496 12.885 128.04 12.885V12.735V12.585C127.529 12.585 127.173 12.4804 126.947 12.2947C126.727 12.1136 126.606 11.8349 126.606 11.426H126.456ZM128.04 12.735H127.89V14.165H128.04H128.19V12.735H128.04ZM128.04 14.165V14.015C127.046 14.015 126.305 13.7677 125.815 13.3311C125.327 12.8968 125.066 12.2569 125.066 11.426H124.916H124.766C124.766 12.3221 125.05 13.0517 125.615 13.5552C126.178 14.0563 127 14.315 128.04 14.315V14.165ZM124.916 11.426H125.066V9.919H124.916H124.766V11.426H124.916ZM124.916 9.919V9.769H123.794V9.919V10.069H124.916V9.919ZM123.794 9.919H123.944V9.303H123.794H123.644V9.919H123.794ZM123.794 9.303L123.9 9.40935L125.946 7.37435L125.84 7.268L125.734 7.16165L123.688 9.19665L123.794 9.303ZM125.84 7.268V7.418H126.456V7.268V7.118H125.84V7.268ZM126.456 7.268H126.306V8.5H126.456H126.606V7.268H126.456ZM126.456 8.5V8.65H128.04V8.5V8.35H126.456V8.5ZM128.04 8.5H127.89V9.919H128.04H128.19V8.5H128.04ZM128.04 9.919V9.769H126.456V9.919V10.069H128.04V9.919ZM130.756 14V14.15H130.906V14H130.756ZM129.216 14H129.066V14.15H129.216V14ZM129.216 8.5V8.35H129.066V8.5H129.216ZM130.591 8.5L130.739 8.47564L130.719 8.35H130.591V8.5ZM130.734 9.369L130.586 9.39336L130.645 9.74845L130.856 9.45698L130.734 9.369ZM135.101 9.897L134.965 9.95907L135.102 10.2616L135.238 9.95836L135.101 9.897ZM140.084 14V14.15H140.234V14H140.084ZM138.544 14H138.394V14.15H138.544V14ZM135.42 14V14.15H135.57V14H135.42ZM133.88 14H133.73V14.15H133.88V14ZM130.756 11.437H130.606V14H130.756H130.906V11.437H130.756ZM130.756 14V13.85H129.216V14V14.15H130.756V14ZM129.216 14H129.366V8.5H129.216H129.066V14H129.216ZM129.216 8.5V8.65H130.591V8.5V8.35H129.216V8.5ZM130.591 8.5L130.443 8.52436L130.586 9.39336L130.734 9.369L130.882 9.34464L130.739 8.47564L130.591 8.5ZM130.734 9.369L130.856 9.45698C131.292 8.85405 131.942 8.485 132.703 8.485V8.335V8.185C131.837 8.185 131.1 8.60795 130.613 9.28102L130.734 9.369ZM132.703 8.335V8.485C133.731 8.485 134.548 9.04216 134.965 9.95907L135.101 9.897L135.238 9.83493C134.775 8.81584 133.854 8.185 132.703 8.185V8.335ZM135.101 9.897L135.238 9.95836C135.647 9.04708 136.423 8.485 137.367 8.485V8.335V8.185C136.288 8.185 135.414 8.83292 134.964 9.83564L135.101 9.897ZM137.367 8.335V8.485C138.117 8.485 138.755 8.78326 139.207 9.29632C139.661 9.81064 139.934 10.5491 139.934 11.437H140.084H140.234C140.234 10.4879 139.941 9.67536 139.432 9.09793C138.922 8.51924 138.202 8.185 137.367 8.185V8.335ZM140.084 11.437H139.934V14H140.084H140.234V11.437H140.084ZM140.084 14V13.85H138.544V14V14.15H140.084V14ZM138.544 14H138.694V11.437H138.544H138.394V14H138.544ZM138.544 11.437H138.694C138.694 10.909 138.521 10.45 138.214 10.1218C137.906 9.79282 137.472 9.604 136.971 9.604V9.754V9.904C137.394 9.904 137.747 10.0617 137.995 10.3267C138.243 10.5925 138.394 10.975 138.394 11.437H138.544ZM136.971 9.754V9.604C136.47 9.604 136.041 9.79307 135.739 10.1229C135.437 10.4516 135.27 10.9104 135.27 11.437H135.42H135.57C135.57 10.9736 135.717 10.5909 135.96 10.3256C136.202 10.0614 136.549 9.904 136.971 9.904V9.754ZM135.42 11.437H135.27V14H135.42H135.57V11.437H135.42ZM135.42 14V13.85H133.88V14V14.15H135.42V14ZM133.88 14H134.03V11.437H133.88H133.73V14H133.88ZM133.88 11.437H134.03C134.03 10.909 133.857 10.45 133.55 10.1218C133.242 9.79282 132.808 9.604 132.307 9.604V9.754V9.904C132.73 9.904 133.083 10.0617 133.331 10.3267C133.579 10.5925 133.73 10.975 133.73 11.437H133.88ZM132.307 9.754V9.604C131.806 9.604 131.377 9.79307 131.075 10.1229C130.773 10.4516 130.606 10.9104 130.606 11.437H130.756H130.906C130.906 10.9736 131.053 10.5909 131.296 10.3256C131.538 10.0614 131.885 9.904 132.307 9.904V9.754Z" fill="black" fill-opacity="0.5" mask="url(#path-2-outside-1_5788_16636)"/>
</svg>
